<svg xmlns="http://www.w3.org/2000/svg" xmlns:xlink="http://www.w3.org/1999/xlink" viewBox="670.41 219 729.59 803.38">
  <defs>
    <style>
      .cls-1 {
        fill: url(#linear-gradient);
      }

      .cls-2 {
        fill: #f9f9f9;
      }

      .cls-3 {
        fill: #e0e0e0;
      }

      .cls-4 {
        fill: #b4b0b0;
      }

      .cls-12, .cls-14, .cls-4, .cls-7 {
        opacity: 0.5;
      }

      .cls-5 {
        fill: url(#linear-gradient-2);
      }

      .cls-6 {
        fill: #f5f5f5;
      }

      .cls-8 {
        fill: url(#linear-gradient-3);
      }

      .cls-9 {
        fill: #c1b4fe;
      }

      .cls-10 {
        fill: #fff;
      }

      .cls-11 {
        fill: #f59ab4;
      }

      .cls-12 {
        fill: #a7e8f1;
      }

      .cls-13 {
        fill: #ffe29d;
      }

      .cls-14 {
        fill: #9de9d1;
      }

      .cls-15 {
        fill: #fcfcfc;
      }

      .cls-16 {
        filter: url(#Path_10);
      }

      .cls-17 {
        filter: url(#Path_9);
      }

      .cls-18 {
        filter: url(#Path_3);
      }

      .cls-19 {
        filter: url(#Path_2);
      }
    </style>
    <linearGradient id="linear-gradient" x1="0.5" y1="1" x2="0.5" gradientUnits="objectBoundingBox">
      <stop offset="0" stop-color="#b3b3b3" stop-opacity="0.251"/>
      <stop offset="0.54" stop-color="#b3b3b3" stop-opacity="0.102"/>
      <stop offset="1" stop-color="#b3b3b3" stop-opacity="0.051"/>
    </linearGradient>
    <filter id="Path_2" x="671.48" y="485.19" width="543" height="446.81" filterUnits="userSpaceOnUse">
      <feOffset dy="3" input="SourceAlpha"/>
      <feGaussianBlur stdDeviation="3" result="blur"/>
      <feFlood flood-opacity="0.22"/>
      <feComposite operator="in" in2="blur"/>
      <feComposite in="SourceGraphic"/>
    </filter>
    <filter id="Path_3" x="670.41" y="219" width="547.18" height="284.69" filterUnits="userSpaceOnUse">
      <feOffset dy="-2" input="SourceAlpha"/>
      <feGaussianBlur stdDeviation="3.5" result="blur-2"/>
      <feFlood flood-opacity="0.161"/>
      <feComposite operator="in" in2="blur-2"/>
      <feComposite in="SourceGraphic"/>
    </filter>
    <linearGradient id="linear-gradient-2" x1="0.5" x2="0.5" y2="0" xlink:href="#linear-gradient"/>
    <linearGradient id="linear-gradient-3" x1="0.5" y1="1" x2="0.5" gradientUnits="objectBoundingBox">
      <stop offset="0" stop-color="gray" stop-opacity="0.251"/>
      <stop offset="0.54" stop-color="gray" stop-opacity="0.122"/>
      <stop offset="1" stop-color="gray" stop-opacity="0.102"/>
    </linearGradient>
    <filter id="Path_9" x="776.48" y="530.19" width="543" height="446.81" filterUnits="userSpaceOnUse">
      <feOffset dy="3" input="SourceAlpha"/>
      <feGaussianBlur stdDeviation="3" result="blur-3"/>
      <feFlood flood-opacity="0.22"/>
      <feComposite operator="in" in2="blur-3"/>
      <feComposite in="SourceGraphic"/>
    </filter>
    <filter id="Path_10" x="774.91" y="265.5" width="544" height="281.69" filterUnits="userSpaceOnUse">
      <feOffset dy="-2" input="SourceAlpha"/>
      <feGaussianBlur stdDeviation="3" result="blur-4"/>
      <feFlood flood-opacity="0.22"/>
      <feComposite operator="in" in2="blur-4"/>
      <feComposite in="SourceGraphic"/>
    </filter>
  </defs>
  <g id="New-document" transform="translate(672 226)">
    <path id="Path_1" data-name="Path 1" class="cls-1" d="M650,694.81c0-51.76,51.11-99.48,102.87-99.48,7.93,0,15.62-2,23-.16.1-2.26.16-15.54.16-17.82V51.81H328l-92,94.5v611.5H659C649.9,743.37,650,713.15,650,694.81Z" transform="translate(-236 -51.81)"/>
    <g class="cls-19" transform="matrix(1, 0, 0, 1, -672, -226)">
      <path id="Path_2-2" data-name="Path 2" class="cls-2" d="M642,704.81a117,117,0,0,1,117-117c3.53,0,7,.17,10.48.47V317h-525V745.81H649.39A116.74,116.74,0,0,1,642,704.81Z" transform="translate(436 174.19)"/>
    </g>
    <g class="cls-18" transform="matrix(1, 0, 0, 1, -672, -226)">
      <path id="Path_3-2" data-name="Path 3" class="cls-2" d="M533.09,269.19H6.91V94.5L92,5.5H533.09Z" transform="translate(674 226)"/>
    </g>
    <rect id="Rectangle_1" data-name="Rectangle 1" class="cls-3" width="142.73" height="10.89" transform="translate(357.59 58.59)"/>
    <rect id="Rectangle_2" data-name="Rectangle 2" class="cls-3" width="142.73" height="10.89" transform="translate(357.59 98.59)"/>
    <rect id="Rectangle_3" data-name="Rectangle 3" class="cls-3" width="142.73" height="10.89" transform="translate(357.59 138.59)"/>
    <rect id="Rectangle_4" data-name="Rectangle 4" class="cls-4" width="142.73" height="10.89" transform="translate(357.59 178.59)"/>
    <rect id="Rectangle_5" data-name="Rectangle 5" class="cls-3" width="142.73" height="10.89" transform="translate(357.59 218.59)"/>
    <rect id="Rectangle_6" data-name="Rectangle 6" class="cls-3" width="142.73" height="10.89" transform="translate(357.59 258.59)"/>
    <rect id="Rectangle_7" data-name="Rectangle 7" class="cls-4" width="142.73" height="10.89" transform="translate(84.72 343.59)"/>
    <rect id="Rectangle_8" data-name="Rectangle 8" class="cls-3" width="142.73" height="10.89" transform="translate(84.72 387.13)"/>
    <rect id="Rectangle_9" data-name="Rectangle 9" class="cls-4" width="372.56" height="10.89" transform="translate(84.72 365.36)"/>
    <rect id="Rectangle_10" data-name="Rectangle 10" class="cls-4" width="142.73" height="10.89" transform="translate(84.72 448.82)"/>
    <rect id="Rectangle_11" data-name="Rectangle 11" class="cls-3" width="142.73" height="10.89" transform="translate(84.72 492.37)"/>
    <rect id="Rectangle_12" data-name="Rectangle 12" class="cls-3" width="372.56" height="10.89" transform="translate(84.72 470.59)"/>
    <rect id="Rectangle_13" data-name="Rectangle 13" class="cls-4" width="142.73" height="10.89" transform="translate(84.72 554.06)"/>
    <rect id="Rectangle_14" data-name="Rectangle 14" class="cls-3" width="142.73" height="10.89" transform="translate(84.72 597.6)"/>
    <rect id="Rectangle_15" data-name="Rectangle 15" class="cls-3" width="305.41" height="10.89" transform="translate(84.72 575.83)"/>
    <path id="Path_4" data-name="Path 4" class="cls-3" d="M310,281H50V54l9-11H310Z"/>
    <path id="Path_5" data-name="Path 5" class="cls-5" d="M4.91,96.5H94V3.5Z"/>
    <path id="Path_6" data-name="Path 6" class="cls-6" d="M6.91,94.5H92V5.5Z"/>
    <g id="Group_1" data-name="Group 1" class="cls-7">
      <circle id="Ellipse_1" data-name="Ellipse 1" class="cls-8" cx="100.13" cy="100.13" r="100.13" transform="translate(527.74 596.12)"/>
    </g>
    <circle id="Ellipse_2" data-name="Ellipse 2" class="cls-9" cx="93.72" cy="93.72" r="93.72" transform="translate(534.15 602.53)"/>
    <g id="Group_2" data-name="Group 2" class="cls-7">
      <path id="Path_7" data-name="Path 7" class="cls-8" d="M678.44,684.95H639.16V645.68H616.58v39.27H577.3v22.59h39.28v39.28h22.58V707.54h39.28Z"/>
    </g>
    <rect id="Rectangle_16" data-name="Rectangle 16" class="cls-10" width="19.2" height="85.97" transform="translate(618.27 653.26)"/>
    <rect id="Rectangle_17" data-name="Rectangle 17" class="cls-10" width="19.2" height="85.97" transform="translate(670.86 686.65) rotate(90)"/>
    <path id="Path_8" data-name="Path 8" class="cls-1" d="M755,739.81c0-51.76,51.11-99.48,102.87-99.48,7.93,0,15.62-2,23-.16.1-2.26.16-15.54.16-17.82V96.81H433l-92,94.5v611.5H764C754.9,788.37,755,758.15,755,739.81Z" transform="translate(-236 -51.81)"/>
    <g class="cls-17" transform="matrix(1, 0, 0, 1, -672, -226)">
      <path id="Path_9-2" data-name="Path 9" class="cls-2" d="M747,749.81a117,117,0,0,1,117-117c3.53,0,7,.17,10.48.47V362h-525V790.81H754.39A116.739,116.739,0,0,1,747,749.81Z" transform="translate(436 174.19)"/>
    </g>
    <g class="cls-16" transform="matrix(1, 0, 0, 1, -672, -226)">
      <path id="Path_10-2" data-name="Path 10" class="cls-2" d="M637.91,314.19h-526V139.5l85.061-89H637.91Z" transform="translate(672 226)"/>
    </g>
    <rect id="Rectangle_18" data-name="Rectangle 18" class="cls-9" width="142.73" height="10.89" transform="translate(462.59 103.59)"/>
    <rect id="Rectangle_19" data-name="Rectangle 19" class="cls-11" width="142.73" height="10.89" transform="translate(462.59 143.59)"/>
    <rect id="Rectangle_20" data-name="Rectangle 20" class="cls-3" width="142.73" height="10.89" transform="translate(462.59 183.59)"/>
    <rect id="Rectangle_21" data-name="Rectangle 21" class="cls-12" width="142.73" height="10.89" transform="translate(462.59 223.59)"/>
    <rect id="Rectangle_22" data-name="Rectangle 22" class="cls-13" width="142.73" height="10.89" transform="translate(462.59 263.59)"/>
    <rect id="Rectangle_23" data-name="Rectangle 23" class="cls-3" width="142.73" height="10.89" transform="translate(462.59 303.59)"/>
    <rect id="Rectangle_24" data-name="Rectangle 24" class="cls-4" width="142.73" height="10.89" transform="translate(189.72 388.59)"/>
    <rect id="Rectangle_25" data-name="Rectangle 25" class="cls-3" width="142.73" height="10.89" transform="translate(189.72 432.13)"/>
    <rect id="Rectangle_26" data-name="Rectangle 26" class="cls-14" width="372.56" height="10.89" transform="translate(189.72 410.36)"/>
    <rect id="Rectangle_27" data-name="Rectangle 27" class="cls-4" width="142.73" height="10.89" transform="translate(189.72 493.82)"/>
    <rect id="Rectangle_28" data-name="Rectangle 28" class="cls-3" width="142.73" height="10.89" transform="translate(189.72 537.37)"/>
    <rect id="Rectangle_29" data-name="Rectangle 29" class="cls-13" width="372.56" height="10.89" transform="translate(189.72 515.59)"/>
    <rect id="Rectangle_30" data-name="Rectangle 30" class="cls-4" width="142.73" height="10.89" transform="translate(189.72 599.06)"/>
    <rect id="Rectangle_31" data-name="Rectangle 31" class="cls-3" width="142.73" height="10.89" transform="translate(189.72 642.6)"/>
    <rect id="Rectangle_32" data-name="Rectangle 32" class="cls-11" width="305.41" height="10.89" transform="translate(189.72 620.83)"/>
    <path id="Path_11" data-name="Path 11" class="cls-3" d="M415,326H155V99l9-11H415Z"/>
    <path id="Path_12" data-name="Path 12" class="cls-5" d="M109.91,141.5H199v-93Z"/>
    <path id="Path_13" data-name="Path 13" class="cls-15" d="M111.91,139.5H197v-89Z"/>
  </g>
</svg>
